<svg width="48" height="48" viewBox="0 0 48 48" fill="none" xmlns="http://www.w3.org/2000/svg">
<rect width="48" height="48" rx="24" fill="white"/>
<rect x="27.7858" y="29.666" width="1.83333" height="7.16666" transform="rotate(90 27.7858 29.666)" fill="#08010D"/>
<path fill-rule="evenodd" clip-rule="evenodd" d="M10.2857 18V29.6667H14.369C17.5907 29.6667 20.2024 27.055 20.2024 23.8333C20.2024 20.6117 17.5907 18 14.369 18H10.2857ZM12.7857 20.5L12.7857 27.1667H14.369C16.21 27.1667 17.7024 25.6743 17.7024 23.8333C17.7024 21.9924 16.21 20.5 14.369 20.5H12.7857Z" fill="#08010D"/>
<path fill-rule="evenodd" clip-rule="evenodd" d="M29.6189 18V29.6667H33.7023C36.9239 29.6667 39.5356 27.055 39.5356 23.8333C39.5356 20.6117 36.9239 18 33.7023 18H29.6189ZM32.1189 20.5L32.1189 27.1667H33.7023C35.5432 27.1667 37.0356 25.6743 37.0356 23.8333C37.0356 21.9924 35.5432 20.5 33.7023 20.5H32.1189Z" fill="#08010D"/>
</svg>
